<svg width="46" height="44" viewBox="0 0 46 44" fill="none" xmlns="http://www.w3.org/2000/svg">
<path d="M39.8906 27.2251L31.4633 23.7876C31.0285 23.6012 30.5511 23.5238 30.0764 23.5629C29.6016 23.602 29.1451 23.7562 28.75 24.011L24.2398 26.8813C21.4911 25.6043 19.2655 23.4876 17.9148 20.8657L20.8977 16.5001C21.1622 16.1217 21.3238 15.6862 21.3678 15.233C21.4117 14.7797 21.3366 14.3232 21.1492 13.9048L17.5375 5.84382C17.2855 5.29952 16.8587 4.84616 16.3192 4.54947C15.7796 4.25279 15.1553 4.12822 14.5367 4.19382C12.1102 4.49788 9.88168 5.63443 8.26549 7.39218C6.64929 9.14992 5.75539 11.4092 5.75 13.7501C5.75 27.397 17.3578 38.5001 31.625 38.5001C34.0722 38.4949 36.4343 37.6399 38.2719 36.094C40.1095 34.548 41.2978 32.4164 41.6156 30.0954C41.6842 29.5037 41.554 28.9065 41.2438 28.3904C40.9336 27.8743 40.4597 27.4661 39.8906 27.2251Z" fill="#FDFDFD"/>
</svg>
