<svg width="34" height="34" viewBox="0 0 34 34" fill="none" xmlns="http://www.w3.org/2000/svg">
<path d="M17 23.375C18.6908 23.375 20.3123 22.7034 21.5078 21.5078C22.7034 20.3123 23.375 18.6908 23.375 17V8.5C23.375 6.80925 22.7034 5.18774 21.5078 3.99219C20.3123 2.79665 18.6908 2.125 17 2.125C15.3092 2.125 13.6877 2.79665 12.4922 3.99219C11.2967 5.18774 10.625 6.80925 10.625 8.5V17C10.625 18.6908 11.2967 20.3123 12.4922 21.5078C13.6877 22.7034 15.3092 23.375 17 23.375Z" fill="#FDFDFD"/>
<path d="M26.6152 17.0132C26.3372 16.9832 26.0587 17.064 25.8399 17.2381C25.6212 17.4121 25.4798 17.6653 25.4464 17.9429C25.2131 20.0199 24.2228 21.9381 22.6646 23.331C21.1064 24.724 19.0896 25.494 16.9996 25.494C14.9095 25.494 12.8927 24.724 11.3345 23.331C9.77636 21.9381 8.786 20.0199 8.55269 17.9429C8.51936 17.6653 8.37798 17.4121 8.1592 17.2381C7.94043 17.064 7.66188 16.9832 7.38394 17.0132C7.24463 17.0264 7.10937 17.0673 6.98612 17.1335C6.86286 17.1998 6.7541 17.29 6.66623 17.3989C6.57837 17.5078 6.51317 17.6332 6.47449 17.7677C6.4358 17.9021 6.42441 18.043 6.44097 18.1819C6.71271 20.5926 7.80426 22.8369 9.53292 24.5389C11.2616 26.241 13.5224 27.2976 15.9371 27.5319V30.8124C15.9371 31.0942 16.049 31.3645 16.2483 31.5637C16.4475 31.763 16.7178 31.8749 16.9996 31.8749C17.2814 31.8749 17.5516 31.763 17.7509 31.5637C17.9501 31.3645 18.0621 31.0942 18.0621 30.8124V27.5319C20.4767 27.2976 22.7375 26.241 24.4662 24.5389C26.1949 22.8369 27.2864 20.5926 27.5582 18.1819C27.5747 18.043 27.5633 17.9021 27.5246 17.7677C27.486 17.6332 27.4208 17.5078 27.3329 17.3989C27.245 17.29 27.1363 17.1998 27.013 17.1335C26.8898 17.0673 26.7545 17.0264 26.6152 17.0132Z" fill="#FDFDFD"/>
</svg>
