<svg width="34" height="34" viewBox="0 0 34 34" fill="none" xmlns="http://www.w3.org/2000/svg">
<path d="M24.0557 12.2869V25.0369C24.0557 25.6005 23.8318 26.141 23.4333 26.5395C23.0347 26.938 22.4942 27.1619 21.9307 27.1619H7.05566C6.35802 27.1619 5.6672 27.0245 5.02266 26.7575C4.37812 26.4905 3.79247 26.0992 3.29916 25.6059C2.30287 24.6096 1.74316 23.2583 1.74316 21.8494V9.09937C1.74316 8.53578 1.96705 7.99528 2.36556 7.59676C2.76408 7.19825 3.30458 6.97437 3.86816 6.97437H18.7432C20.1521 6.97437 21.5034 7.53407 22.4997 8.53036C23.496 9.52665 24.0557 10.8779 24.0557 12.2869ZM33.0869 9.77671C32.9268 9.67937 32.743 9.62789 32.5557 9.62789C32.3683 9.62789 32.1845 9.67937 32.0244 9.77671L26.7119 12.8048C26.549 12.8989 26.414 13.0345 26.3206 13.1979C26.2273 13.3612 26.179 13.5464 26.1807 13.7345V20.4017C26.179 20.5898 26.2273 20.775 26.3206 20.9384C26.414 21.1017 26.549 21.2373 26.7119 21.3314L32.0244 24.3595C32.1863 24.4524 32.3691 24.5027 32.5557 24.5056C32.7425 24.5045 32.9258 24.4541 33.0869 24.3595C33.2497 24.2687 33.385 24.1356 33.4785 23.9744C33.572 23.8131 33.6203 23.6295 33.6182 23.4431V10.6931C33.6203 10.5067 33.572 10.3232 33.4785 10.1619C33.385 10.0006 33.2497 9.86752 33.0869 9.77671Z" fill="#FDFDFD"/>
</svg>
