<svg width="100%" height="100%" viewBox="0 0 24 24" fill="none" xmlns="http://www.w3.org/2000/svg">
    <g id="fi-br-pencil" clip-path="url(#clip0_402_8102)">
        <path id="Vector"
              d="M22.8241 1.176C22.0598 0.44565 21.0433 0.0380859 19.9861 0.0380859C18.929 0.0380859 17.9125 0.44565 17.1481 1.176L1.61114 16.713C1.09905 17.2223 0.693002 17.828 0.416481 18.4952C0.139961 19.1624 -0.00154851 19.8778 0.000136951 20.6V22.5C0.000136951 22.8978 0.158172 23.2794 0.439477 23.5607C0.720781 23.842 1.10231 24 1.50014 24H3.40014C4.12269 24.0019 4.83846 23.8606 5.506 23.584C6.17355 23.3075 6.77962 22.9013 7.28914 22.389L22.8241 6.852C23.5757 6.09874 23.9978 5.07809 23.9978 4.014C23.9978 2.9499 23.5757 1.92926 22.8241 1.176ZM5.16614 20.268C4.69652 20.7346 4.06212 20.9975 3.40014 21H3.00014V20.6C3.00219 19.9373 3.26517 19.3022 3.73214 18.832L15.3001 7.267L16.7331 8.7L5.16614 20.268ZM20.7001 4.731L18.8541 6.58L17.4201 5.146L19.2701 3.3C19.4631 3.11558 19.7197 3.01266 19.9866 3.01266C20.2535 3.01266 20.5102 3.11558 20.7031 3.3C20.8917 3.49056 20.9973 3.748 20.9967 4.01612C20.9962 4.28423 20.8895 4.54123 20.7001 4.731Z"
              fill="#374957"/>
    </g>
    <defs>
        <clipPath id="clip0_402_8102">
            <rect width="24" height="24" fill="white"/>
        </clipPath>
    </defs>
</svg>
