<svg width="100%" height="100%" viewBox="0 0 24 24" fill="none" xmlns="http://www.w3.org/2000/svg">
<g id="fi-br-star" clip-path="url(#clip0_402_8100)">
<path id="Vector" d="M6.85201 23.4374C6.08882 23.434 5.3463 23.189 4.73101 22.7374C4.10222 22.2951 3.63303 21.6616 3.39321 20.9311C3.1534 20.2007 3.15578 19.4124 3.40001 18.6834L4.57001 15.0644L1.49001 12.8124C0.872456 12.3612 0.413432 11.7263 0.178616 10.9984C-0.0562006 10.2705 -0.0547767 9.48697 0.182684 8.75994C0.420145 8.03291 0.881473 7.39962 1.50067 6.95067C2.11986 6.50171 2.86519 6.26011 3.63001 6.26042H7.40001L8.54501 2.69042C8.78 1.95936 9.24096 1.32174 9.86149 0.869401C10.482 0.41706 11.2301 0.17334 11.998 0.17334C12.7659 0.17334 13.514 0.41706 14.1345 0.869401C14.7551 1.32174 15.216 1.95936 15.451 2.69042L16.6 6.26042H20.37C21.1348 6.26032 21.8799 6.50208 22.499 6.95111C23.118 7.40014 23.5792 8.03344 23.8165 8.76042C24.0538 9.4874 24.0552 10.2708 23.8203 10.9986C23.5855 11.7264 23.1265 12.3613 22.509 12.8124L19.43 15.0644L20.6 18.6834C20.8359 19.4134 20.8342 20.1995 20.5951 20.9284C20.356 21.6574 19.8918 22.2917 19.2694 22.7402C18.647 23.1887 17.8983 23.4282 17.1312 23.4243C16.364 23.4204 15.6178 23.1732 15 22.7184L12 20.5124L9.00001 22.7194C8.37927 23.1824 7.62639 23.4341 6.85201 23.4374ZM3.63001 9.26042C3.49802 9.26041 3.3694 9.30212 3.26253 9.37959C3.15566 9.45706 3.07602 9.56633 3.03498 9.69178C2.99394 9.81723 2.9936 9.95245 3.03402 10.0781C3.07443 10.2038 3.15353 10.3134 3.26001 10.3914L7.21601 13.2824C7.47075 13.4687 7.66025 13.7305 7.75756 14.0307C7.85487 14.3309 7.85503 14.6541 7.75801 14.9544L6.25801 19.6044C6.21639 19.7306 6.21596 19.8667 6.2568 19.993C6.29763 20.1194 6.37761 20.2296 6.48516 20.3075C6.59271 20.3854 6.72227 20.4271 6.85509 20.4266C6.98791 20.426 7.11711 20.3833 7.22401 20.3044L11.113 17.4434C11.3707 17.2538 11.6821 17.1516 12.002 17.1516C12.3219 17.1516 12.6334 17.2538 12.891 17.4434L16.78 20.3034C16.8868 20.383 17.0162 20.4264 17.1493 20.4273C17.2825 20.4282 17.4124 20.3865 17.5202 20.3084C17.628 20.2302 17.7081 20.1197 17.7487 19.9929C17.7893 19.8661 17.7884 19.7297 17.746 19.6034L16.246 14.9534C16.149 14.6531 16.1492 14.3299 16.2465 14.0297C16.3438 13.7295 16.5333 13.4677 16.788 13.2814L20.743 10.3904C20.8494 10.3125 20.9285 10.2029 20.9689 10.0773C21.0094 9.95178 21.0091 9.81666 20.9682 9.69125C20.9273 9.56585 20.8478 9.45658 20.7411 9.37903C20.6344 9.30148 20.5059 9.25962 20.374 9.25942H15.5C15.1823 9.25934 14.8728 9.1584 14.6162 8.97113C14.3596 8.78386 14.169 8.51995 14.072 8.21742L12.6 3.60642C12.5595 3.48022 12.4799 3.37015 12.3728 3.29206C12.2657 3.21396 12.1366 3.17189 12.004 3.17189C11.8715 3.17189 11.7423 3.21396 11.6352 3.29206C11.5281 3.37015 11.4486 3.48022 11.408 3.60642L9.92501 8.21842C9.82817 8.52046 9.63807 8.78403 9.38203 8.97125C9.12599 9.15847 8.8172 9.25971 8.50001 9.26042H3.63001Z" fill="#374957"/>
</g>
<defs>
<clipPath id="clip0_402_8100">
<rect width="24" height="24" fill="white"/>
</clipPath>
</defs>
</svg>
