<svg width="100%" height="100%" viewBox="0 0 32 32" fill="none" xmlns="http://www.w3.org/2000/svg">
<path d="M4 8V18" stroke="#374957" stroke-width="3" stroke-linecap="round" stroke-linejoin="round"/>
<path d="M6.775 27C7.77558 25.4653 9.14322 24.2045 10.754 23.3318C12.3649 22.4591 14.168 22.002 16 22.002C17.832 22.002 19.6351 22.4591 21.246 23.3318C22.8568 24.2045 24.2244 25.4653 25.225 27" stroke="#374957" stroke-width="3" stroke-linecap="round" stroke-linejoin="round"/>
<path d="M28 8L16 12L4 8L16 4L28 8Z" stroke="#374957" stroke-width="3" stroke-linecap="round" stroke-linejoin="round"/>
<path d="M21.1625 10.275C22.0798 11.2767 22.6859 12.5237 22.9068 13.8639C23.1277 15.204 22.954 16.5796 22.4067 17.8227C21.8595 19.0659 20.9624 20.1229 19.8248 20.8651C18.6872 21.6073 17.3583 22.0024 16 22.0024C14.6417 22.0024 13.3128 21.6073 12.1752 20.8651C11.0376 20.1229 10.1405 19.0659 9.59328 17.8227C9.04604 16.5796 8.87229 15.204 9.09322 13.8639C9.31414 12.5237 9.9202 11.2767 10.8375 10.275" stroke="#374957" stroke-width="3" stroke-linecap="round" stroke-linejoin="round"/>
</svg>
