<svg width="100%" height="100%" viewBox="0 0 24 24" fill="none" xmlns="http://www.w3.org/2000/svg">
    <g id="fi-br-text-check" clip-path="url(#clip0_402_8103)">
        <path id="Vector"
              d="M8.09391 1.32819C7.96941 1.07884 7.77789 0.869113 7.54085 0.722526C7.30381 0.575939 7.03062 0.498291 6.75191 0.498291C6.47321 0.498291 6.20002 0.575939 5.96298 0.722526C5.72593 0.869113 5.53442 1.07884 5.40991 1.32819L0.159914 11.8282C0.0455891 12.0568 -0.00843876 12.3108 0.00295696 12.5661C0.0143527 12.8214 0.090794 13.0696 0.225028 13.287C0.359263 13.5045 0.546838 13.6841 0.769959 13.8087C0.993079 13.9334 1.24434 13.9989 1.49991 13.9992C1.77852 13.9993 2.05165 13.9218 2.28868 13.7753C2.52572 13.6289 2.71728 13.4194 2.84191 13.1702L3.42891 11.9992H10.0749L10.6599 13.1702C10.7844 13.4191 10.9756 13.6284 11.2123 13.7748C11.4489 13.9212 11.7216 13.9989 11.9999 13.9992C12.2557 13.9993 12.5072 13.934 12.7306 13.8095C12.954 13.685 13.1418 13.5054 13.2763 13.2879C13.4107 13.0704 13.4874 12.8221 13.4988 12.5666C13.5103 12.3111 13.4563 12.0569 13.3419 11.8282L8.09391 1.32819ZM4.92891 8.99919L6.75191 5.35319L8.57491 8.99919H4.92891Z"
              fill="#374957"/>
        <path id="Vector_2"
              d="M13.0001 23.5002C12.8031 23.5003 12.608 23.4616 12.4259 23.3863C12.2439 23.311 12.0785 23.2005 11.9391 23.0612L6.93911 18.0612C6.65772 17.7798 6.49963 17.3982 6.49963 17.0002C6.49963 16.6023 6.65772 16.2206 6.93911 15.9392C7.22051 15.6578 7.60216 15.4998 8.00011 15.4998C8.39806 15.4998 8.77972 15.6578 9.06111 15.9392L13.0001 19.8792L21.4391 11.4392C21.7205 11.1578 22.1021 10.9998 22.5001 10.9998C22.898 10.9998 23.2797 11.1578 23.5611 11.4392C23.8425 11.7206 24.0006 12.1023 24.0006 12.5002C24.0006 12.8982 23.8425 13.2798 23.5611 13.5612L14.0611 23.0612C13.9217 23.2005 13.7563 23.311 13.5743 23.3863C13.3922 23.4616 13.1971 23.5003 13.0001 23.5002Z"
              fill="#374957"/>
    </g>
    <defs>
        <clipPath id="clip0_402_8103">
            <rect width="24" height="24" fill="white"/>
        </clipPath>
    </defs>
</svg>
