<svg width="100%" height="100%" viewBox="0 0 24 24" fill="none" xmlns="http://www.w3.org/2000/svg">
<g id="fi-br-user" clip-path="url(#clip0_402_8101)">
<g id="Group">
<path id="Vector" d="M11.4524 14.0187C7.19063 14.4039 3.94378 18.005 4.00036 22.2837V22.5007C4.00036 23.3291 4.67194 24.0007 5.50036 24.0007C6.32878 24.0007 7.00036 23.3291 7.00036 22.5007V22.2237C6.95527 19.5966 8.89402 17.3563 11.5004 17.0237C14.2516 16.7509 16.7031 18.76 16.9759 21.5113C16.9921 21.6739 17.0002 21.8373 17.0003 22.0007V22.5007C17.0003 23.3291 17.6719 24.0007 18.5003 24.0007C19.3288 24.0007 20.0003 23.3291 20.0003 22.5007V22.0007C19.9955 17.5774 16.4057 13.9956 11.9825 14.0005C11.8057 14.0007 11.6288 14.0068 11.4524 14.0187Z" fill="#374957"/>
<path id="Vector_2" d="M12.0004 12C15.3141 12 18.0004 9.31369 18.0004 6C18.0004 2.68631 15.3141 0 12.0004 0C8.68668 0 6.00037 2.68631 6.00037 6C6.00365 9.31233 8.68804 11.9967 12.0004 12ZM12.0004 3C13.6572 3 15.0004 4.34316 15.0004 6C15.0004 7.65684 13.6572 9 12.0004 9C10.3435 9 9.00037 7.65684 9.00037 6C9.00037 4.34316 10.3435 3 12.0004 3Z" fill="#374957"/>
</g>
</g>
<defs>
<clipPath id="clip0_402_8101">
<rect width="24" height="24" fill="white"/>
</clipPath>
</defs>
</svg>
