<svg width="100%" height="100%" viewBox="0 0 32 32" fill="none" xmlns="http://www.w3.org/2000/svg">
<path d="M16 20C18.7614 20 21 17.7614 21 15C21 12.2386 18.7614 10 16 10C13.2386 10 11 12.2386 11 15C11 17.7614 13.2386 20 16 20Z" stroke="#374957" stroke-width="3" stroke-linecap="round" stroke-linejoin="round"/>
<path d="M7.97501 24.925C8.72739 23.443 9.87546 22.1983 11.2919 21.3289C12.7084 20.4595 14.338 19.9992 16 19.9992C17.662 19.9992 19.2916 20.4595 20.7081 21.3289C22.1246 22.1983 23.2726 23.443 24.025 24.925" stroke="#374957" stroke-width="3" stroke-linecap="round" stroke-linejoin="round"/>
<path d="M25 7V4.5" stroke="#374957" stroke-width="3" stroke-linecap="round" stroke-linejoin="round"/>
<path d="M25 7.00001L22.625 6.22501" stroke="#374957" stroke-width="3" stroke-linecap="round" stroke-linejoin="round"/>
<path d="M25 7L23.525 9.025" stroke="#374957" stroke-width="3" stroke-linecap="round" stroke-linejoin="round"/>
<path d="M25 7L26.475 9.025" stroke="#374957" stroke-width="3" stroke-linecap="round" stroke-linejoin="round"/>
<path d="M25 7.00001L27.375 6.22501" stroke="#374957" stroke-width="3" stroke-linecap="round" stroke-linejoin="round"/>
<path d="M27.9125 14.5625C27.9731 15.0392 28.0024 15.5194 28 16C28 18.3734 27.2962 20.6935 25.9776 22.6668C24.6591 24.6402 22.7849 26.1783 20.5922 27.0866C18.3995 27.9948 15.9867 28.2324 13.6589 27.7694C11.3312 27.3064 9.19295 26.1635 7.51472 24.4853C5.83649 22.8071 4.6936 20.6689 4.23058 18.3411C3.76756 16.0133 4.0052 13.6005 4.91345 11.4078C5.8217 9.21509 7.35977 7.34094 9.33316 6.02237C11.3066 4.70379 13.6266 4 16 4C16.3714 3.99766 16.7428 4.01435 17.1125 4.05" stroke="#374957" stroke-width="3" stroke-linecap="round" stroke-linejoin="round"/>
</svg>
