<svg width="100%" height="100%" viewBox="0 0 32 32" fill="none" xmlns="http://www.w3.org/2000/svg">
<path d="M16 22.5C18.7614 22.5 21 20.2614 21 17.5C21 14.7386 18.7614 12.5 16 12.5C13.2386 12.5 11 14.7386 11 17.5C11 20.2614 13.2386 22.5 16 22.5Z" stroke="#374957" stroke-width="3" stroke-linecap="round" stroke-linejoin="round"/>
<path d="M8.8 27C9.45853 25.6514 10.4826 24.5148 11.7556 23.7198C13.0285 22.9247 14.4992 22.5032 16 22.5032C17.5008 22.5032 18.9715 22.9247 20.2444 23.7198C21.5174 24.5148 22.5415 25.6514 23.2 27" stroke="#374957" stroke-width="3" stroke-linecap="round" stroke-linejoin="round"/>
<path d="M25.5625 14.575C27.5306 14.8582 29.3061 15.91 30.5 17.5" stroke="#374957" stroke-width="3" stroke-linecap="round" stroke-linejoin="round"/>
<path d="M20.8875 8.775C21.1779 8.16886 21.6164 7.64568 22.1624 7.25376C22.7084 6.86185 23.3444 6.61384 24.0116 6.53265C24.6788 6.45146 25.3557 6.5397 25.9798 6.78922C26.6039 7.03874 27.155 7.44149 27.5823 7.96029C28.0097 8.47908 28.2994 9.09719 28.4247 9.75752C28.55 10.4179 28.5069 11.0991 28.2994 11.7384C28.0919 12.3777 27.7266 12.9544 27.2373 13.4152C26.7481 13.876 26.1506 14.2061 25.5 14.375" stroke="#374957" stroke-width="3" stroke-linecap="round" stroke-linejoin="round"/>
<path d="M6.5 14.375C5.84945 14.2061 5.25195 13.876 4.76267 13.4152C4.2734 12.9544 3.90814 12.3777 3.70062 11.7384C3.49309 11.0991 3.45 10.4179 3.57533 9.75752C3.70065 9.09719 3.99034 8.47908 4.41765 7.96029C4.84497 7.44149 5.39612 7.03874 6.0202 6.78922C6.64429 6.5397 7.32119 6.45146 7.98838 6.53265C8.65558 6.61384 9.29156 6.86185 9.83759 7.25376C10.3836 7.64568 10.8221 8.16886 11.1125 8.775" stroke="#374957" stroke-width="3" stroke-linecap="round" stroke-linejoin="round"/>
<path d="M1.5 17.5C2.6939 15.91 4.46944 14.8582 6.4375 14.575" stroke="#374957" stroke-width="3" stroke-linecap="round" stroke-linejoin="round"/>
</svg>
